<?xml version="1.0" standalone="no"?>
<!DOCTYPE svg PUBLIC "-//W3C//DTD SVG 20010904//EN"
 "http://www.w3.org/TR/2001/REC-SVG-20010904/DTD/svg10.dtd">
<svg version="1.0" xmlns="http://www.w3.org/2000/svg"
 width="1280.000000pt" height="720.000000pt" viewBox="0 0 1280.000000 720.000000"
 preserveAspectRatio="xMidYMid meet">
<metadata>
Created by potrace 1.16, written by Peter Selinger 2001-2019
</metadata>
<g transform="translate(0.000000,720.000000) scale(0.100000,-0.100000)"
fill="#000000" stroke="none">
<path d="M11697 4949 c-107 -14 -301 -66 -406 -109 -134 -53 -174 -73 -274
-135 -258 -161 -440 -334 -599 -570 -134 -198 -219 -394 -274 -631 -25 -105
-28 -139 -28 -289 -1 -185 15 -276 70 -407 194 -466 754 -640 1407 -437 54 16
139 47 188 69 110 48 288 153 326 192 47 49 40 89 -65 358 -108 275 -108 275
-140 296 -40 26 -87 20 -145 -18 -339 -224 -634 -237 -740 -34 -29 56 -35 187
-13 281 21 89 90 233 150 312 102 135 242 238 389 288 105 35 239 36 312 1 59
-27 129 -100 169 -173 33 -60 79 -88 129 -79 34 7 556 407 591 452 38 51 16
132 -74 264 -43 63 -143 161 -213 209 -78 53 -204 107 -317 136 -119 30 -322
41 -443 24z m288 -100 c30 -1 30 -1 5 -10 -19 -7 -15 -8 20 -5 55 6 126 -7 95
-16 -11 -4 -82 -12 -157 -19 -141 -13 -216 -6 -278 26 -23 12 -22 13 30 19 30
3 71 8 90 10 19 2 64 2 100 0 36 -2 79 -4 95 -5z m165 -57 c0 -4 -43 -50 -96
-102 -120 -119 -121 -121 -94 -166 12 -19 19 -41 16 -49 -4 -11 2 -15 24 -15
49 0 175 -55 303 -133 68 -41 134 -77 147 -79 31 -4 33 -22 2 -26 -12 -2 -20
-7 -17 -12 3 -4 -19 -27 -47 -50 -51 -40 -55 -42 -102 -35 -60 8 -78 17 -99
49 -14 21 -21 23 -51 16 -30 -7 -36 -5 -42 12 -5 17 -7 18 -17 4 -7 -10 -34
-19 -63 -22 -41 -5 -59 -2 -100 19 -96 48 -193 58 -322 31 -154 -31 -299 -112
-426 -237 -38 -37 -70 -66 -72 -64 -11 10 -54 121 -54 137 0 12 15 30 40 45
53 33 60 65 25 106 -18 23 -25 39 -21 56 3 12 9 34 12 48 5 19 2 25 -9 25 -9
0 -20 7 -25 15 -7 14 -16 12 -66 -10 -55 -24 -82 -27 -60 -5 6 6 43 30 82 55
64 39 71 41 67 22 -5 -18 -1 -22 22 -24 15 0 29 -6 31 -12 3 -9 7 -9 18 0 7 6
61 19 119 29 58 10 112 23 119 29 7 6 21 9 30 5 24 -9 -31 45 -96 95 -63 47
-74 61 -30 37 15 -9 59 -22 97 -30 39 -8 79 -18 90 -22 22 -8 13 5 -59 84 -23
24 -26 32 -14 32 9 0 20 -4 23 -10 3 -5 29 -20 56 -31 60 -26 130 -100 122
-129 -5 -18 0 -20 36 -20 l40 0 -34 59 c-19 33 -35 62 -35 65 0 2 17 2 38 -1
l37 -5 -38 32 c-43 37 -63 68 -50 81 10 10 128 -64 183 -114 72 -67 80 -72 80
-53 0 10 -34 51 -75 93 -41 42 -75 82 -75 89 0 14 29 8 70 -13 37 -19 44 -17
94 26 39 34 93 59 161 74 35 8 105 7 105 -1z m-1109 -232 c-30 -26 -11 -26 39
0 44 22 50 24 50 11 0 -5 -30 -23 -67 -41 l-68 -33 32 -11 c17 -6 34 -13 37
-16 2 -3 -38 -32 -90 -64 -68 -43 -91 -62 -82 -68 9 -7 10 -11 2 -14 -6 -3
-20 -11 -30 -20 -17 -13 -16 -14 20 -8 l38 7 -16 -26 c-10 -14 -57 -51 -105
-83 -57 -37 -92 -68 -98 -85 -7 -17 -31 -37 -72 -59 -66 -36 -80 -54 -29 -39
64 18 52 -8 -45 -104 l-96 -94 -45 21 -45 22 47 84 c65 115 120 195 208 300
90 107 169 180 196 180 13 0 18 5 15 14 -6 14 58 66 80 66 6 0 25 11 41 25 26
22 87 54 102 54 3 0 -6 -9 -19 -19z m-394 -675 c12 -9 26 -14 30 -13 4 1 41
-4 81 -12 54 -10 90 -24 140 -57 37 -23 71 -44 75 -46 4 -1 -5 -31 -22 -67
-16 -36 -37 -99 -47 -141 -17 -69 -20 -74 -34 -58 -17 21 -120 38 -120 21 0
-17 58 -79 96 -102 45 -28 43 -40 -6 -40 -55 0 -51 -27 17 -103 42 -47 107
-147 100 -154 -3 -3 -13 9 -22 26 -8 17 -20 31 -25 31 -17 0 -80 70 -80 90 0
10 -15 36 -34 56 -21 23 -40 59 -50 95 -21 72 -51 116 -104 152 -32 21 -42 35
-42 55 l-1 27 -19 -23 c-19 -23 -19 -24 2 -53 12 -16 27 -29 34 -29 7 0 26
-11 41 -25 l28 -24 -27 -1 c-19 0 -33 8 -44 25 -14 21 -24 25 -63 25 l-46 0
45 -29 c25 -15 52 -36 59 -45 14 -17 12 -17 -35 -11 l-49 8 76 -79 c69 -71
112 -144 96 -161 -3 -2 -19 6 -37 18 -25 19 -28 24 -14 29 14 5 13 9 -8 34
-14 17 -31 27 -42 25 -17 -4 -16 -6 4 -31 12 -16 18 -28 14 -28 -3 0 -39 16
-78 36 -70 36 -186 59 -186 37 0 -5 31 -27 69 -48 67 -36 130 -89 119 -100 -9
-9 -99 23 -139 49 -21 15 -63 35 -92 46 -88 33 -88 33 -72 120 16 90 51 231
66 263 7 15 35 34 76 52 39 17 89 50 122 81 110 103 113 104 148 79z m-263
-683 c69 -33 112 -61 135 -87 l34 -39 -24 -6 c-13 -3 -28 -16 -34 -28 -13 -30
-20 -28 -45 13 -27 44 -42 45 -29 3 5 -17 6 -34 3 -37 -8 -8 -24 21 -24 45 0
11 -13 33 -29 48 -23 22 -40 28 -78 30 -42 1 -48 4 -51 24 -2 12 -8 22 -13 22
-5 0 -9 16 -9 36 0 36 1 36 32 30 17 -3 77 -28 132 -54z m1561 -280 c-3 -3
-34 1 -68 8 -34 8 -104 15 -155 16 -74 1 -108 7 -168 29 -42 15 -72 31 -67 35
4 4 26 13 48 20 22 7 63 23 90 37 28 14 51 24 53 22 8 -6 122 56 122 67 0 6
10 18 22 26 23 15 23 14 76 -120 29 -74 50 -137 47 -140z m-1695 183 c-18 -22
-2 -65 25 -65 13 0 30 -10 39 -25 11 -16 26 -25 42 -25 16 0 34 -10 45 -24 11
-14 30 -28 42 -32 43 -13 86 -52 80 -74 -4 -15 8 -32 47 -67 55 -51 92 -72
125 -72 15 -1 3 15 -45 59 -73 66 -72 78 1 25 27 -19 52 -35 55 -35 16 0 -43
63 -75 80 -21 10 -57 35 -80 54 -24 20 -49 36 -57 36 -8 0 -14 5 -14 11 0 11
38 3 55 -12 20 -19 26 -7 20 33 l-7 42 32 -27 c39 -33 50 -34 50 -4 0 32 11
44 46 51 23 5 36 2 48 -9 31 -32 19 31 -14 68 -16 19 -30 37 -30 41 0 3 28 -8
61 -25 42 -20 65 -27 72 -20 6 6 17 5 33 -6 20 -12 27 -13 39 -3 13 10 22 8
56 -15 40 -29 39 -44 -4 -45 -10 0 -16 -4 -13 -9 9 -14 142 -24 296 -22 141 2
151 1 380 -49 190 -42 248 -51 300 -47 l66 4 37 -94 37 -95 -22 -18 c-80 -65
-382 -210 -439 -210 -54 0 -190 75 -273 150 -94 86 -122 100 -266 135 -63 16
-139 36 -169 47 -72 24 -76 22 -18 -8 60 -31 67 -48 33 -83 -14 -15 -26 -36
-26 -48 0 -11 -7 -26 -15 -33 -29 -24 -16 -33 38 -26 38 4 59 2 73 -8 17 -13
16 -15 -21 -22 -22 -4 -53 -15 -70 -26 -16 -10 -38 -18 -47 -18 -46 0 13 -84
87 -124 l30 -16 -40 6 c-210 31 -402 136 -517 283 l-42 54 29 -7 c31 -8 45
-21 45 -43 0 -7 5 -13 10 -13 6 0 10 4 10 8 0 8 7 10 50 14 11 1 20 8 20 15 0
7 5 13 11 13 8 0 10 -12 6 -36 -6 -33 -4 -36 26 -49 18 -7 41 -23 51 -34 25
-28 36 -26 36 4 0 30 20 33 45 5 19 -22 35 -26 35 -10 0 26 -62 75 -126 100
-46 19 -73 35 -81 51 -6 13 -17 36 -24 52 -7 15 -25 35 -40 45 -14 9 -42 37
-60 61 -19 23 -46 50 -61 59 -23 14 -29 14 -44 2 -15 -13 -9 -21 67 -92 46
-42 81 -79 78 -82 -3 -3 -31 0 -63 6 -46 10 -61 18 -72 39 -19 38 -52 163 -60
233 -6 58 -6 58 15 46 17 -9 20 -15 11 -25z m1011 -481 c14 -7 32 -20 39 -29
27 -33 126 -92 185 -112 l60 -20 -97 -23 c-61 -14 -108 -20 -125 -15 -16 4
-40 7 -56 6 -36 0 -68 59 -65 121 1 24 -2 56 -6 72 -8 26 -7 28 15 21 13 -4
36 -13 50 -21z"/>
<path d="M5665 4939 c-420 -41 -858 -276 -1136 -608 -235 -280 -383 -601 -434
-936 -56 -376 61 -714 314 -907 198 -150 504 -226 797 -199 391 37 748 203
1040 483 275 265 451 580 536 958 19 89 23 133 23 285 0 165 -2 188 -27 277
-89 319 -309 529 -643 613 -157 40 -304 51 -470 34z m300 -110 c230 -28 411
-114 546 -256 99 -105 164 -246 189 -407 9 -55 8 -71 -2 -77 -10 -7 -10 -9 0
-9 28 0 5 -294 -26 -317 -8 -7 -11 -13 -5 -13 8 0 3 -30 -12 -87 -83 -307
-231 -566 -450 -787 l-78 -79 -17 23 c-12 16 -19 19 -25 11 -4 -7 0 -20 8 -29
15 -16 9 -22 -70 -81 -47 -36 -119 -84 -159 -108 -71 -43 -74 -44 -103 -29
-16 9 -45 16 -63 16 -18 0 -53 9 -77 20 -49 23 -135 28 -129 8 9 -25 112 -68
182 -76 l70 -7 -86 -37 c-107 -47 -236 -84 -353 -103 -118 -19 -295 -19 -359
0 -27 8 -72 15 -100 15 -62 0 -206 47 -296 97 -75 42 -190 154 -238 231 -17
28 -30 52 -28 52 2 0 37 -19 78 -43 50 -30 74 -50 76 -65 3 -19 10 -22 48 -22
28 0 52 6 61 15 14 14 13 15 -8 10 -19 -5 -31 1 -54 25 -16 16 -33 30 -38 30
-5 0 -27 15 -50 34 -23 18 -62 44 -87 57 l-45 24 33 3 c45 5 40 17 -13 32 -47
13 -57 24 -69 73 l-7 29 28 -19 c30 -21 93 -54 93 -48 0 2 -25 29 -55 62 -39
41 -57 54 -63 45 -15 -23 -35 141 -27 230 14 165 62 378 85 378 6 0 10 13 10
28 0 16 3 31 6 35 8 8 151 -110 171 -140 8 -12 12 -27 9 -32 -4 -6 6 -17 21
-24 31 -16 103 -38 103 -31 0 7 -82 128 -104 152 -12 13 -37 32 -56 42 -19 10
-55 35 -78 56 -41 36 -43 41 -32 65 l12 26 54 -29 c29 -16 67 -46 84 -66 l30
-37 0 108 c0 122 -3 125 -75 84 -22 -12 -48 -21 -57 -19 -16 3 -14 10 14 65
43 86 131 218 197 296 62 73 223 231 235 231 4 0 15 -9 24 -19 10 -10 31 -21
48 -24 26 -5 35 -1 53 24 12 16 31 29 43 29 17 0 19 -3 10 -12 -27 -27 -11
-36 27 -15 27 15 36 24 28 30 -8 6 -7 7 3 4 8 -2 24 0 35 6 14 7 12 1 -9 -22
-17 -17 -26 -31 -22 -31 19 0 76 43 102 77 29 38 28 39 -31 18 -14 -5 -11 2
12 24 l32 30 -36 3 -37 3 32 37 c18 20 43 38 54 40 12 2 23 9 26 17 4 10 -2
12 -24 8 -37 -8 48 34 142 69 95 36 160 47 219 39 28 -5 69 -7 93 -6 23 1 55
-5 70 -13 l27 -15 -27 -1 c-15 0 -30 -5 -34 -11 -6 -11 -31 -9 -69 6 -15 6
-17 5 -9 -4 6 -7 32 -19 59 -26 41 -13 46 -13 41 0 -4 12 3 15 32 15 54 0 173
-31 201 -52 33 -25 103 -24 152 4 39 22 55 46 22 33 -10 -3 -40 -9 -68 -11
l-50 -5 56 23 c30 14 65 31 78 40 22 15 21 16 -24 23 -41 6 -111 7 -170 3 -11
-1 -44 -1 -73 0 -49 2 -52 3 -40 22 15 23 30 24 153 9z"/>
<path d="M6170 4372 c-48 -7 -208 -92 -249 -131 l-41 -40 -45 20 c-87 39 -246
40 -360 2 -93 -30 -230 -107 -315 -178 -22 -18 -23 -18 -10 -1 14 18 13 19
-15 11 -16 -4 -46 -11 -65 -15 -29 -6 -32 -8 -16 -15 10 -4 30 -8 45 -9 l28
-1 -51 -63 -51 -63 -28 31 c-15 17 -30 44 -34 61 -5 26 -9 29 -44 29 -22 0
-39 -2 -39 -3 0 -2 18 -23 40 -46 31 -33 40 -50 40 -77 0 -19 4 -43 9 -52 6
-12 0 -33 -19 -70 -31 -61 -33 -60 -78 38 -16 36 -41 76 -56 89 -14 14 -26 30
-26 37 0 18 -27 36 -60 40 -20 2 -42 -5 -66 -21 -20 -14 -51 -25 -68 -25 -49
0 -57 -10 -45 -55 8 -28 13 -34 19 -24 10 16 20 7 158 -126 53 -52 82 -74 82
-62 0 9 7 17 15 17 8 0 15 3 15 8 0 9 -59 58 -122 100 l-46 32 12 45 c6 26 15
46 19 46 4 0 33 -30 65 -67 59 -70 77 -72 43 -5 -26 50 -26 59 -2 37 11 -10
36 -59 56 -109 l36 -91 -22 -80 c-13 -45 -26 -83 -29 -86 -3 -3 -3 -60 1 -126
5 -107 10 -129 37 -187 64 -138 160 -197 335 -205 82 -4 110 -1 169 18 103 32
165 62 242 115 65 44 71 46 120 41 l51 -5 -49 11 -48 11 43 38 c29 25 55 39
74 40 24 1 25 3 7 6 -27 5 -19 23 10 23 16 0 18 3 9 14 -8 10 -6 19 11 38 27
28 111 186 134 249 17 49 21 63 38 163 13 74 22 84 79 85 46 1 30 21 -18 21
l-45 0 0 50 c0 45 2 50 23 51 12 0 29 2 37 4 8 2 35 9 60 16 27 6 80 9 133 5
67 -4 95 -2 116 9 16 8 31 12 34 9 3 -3 19 4 36 17 21 16 43 22 75 22 31 -1
50 4 61 17 15 16 10 19 -82 40 -98 23 -161 26 -350 18 -86 -4 -93 -6 -128 -37
-30 -26 -39 -30 -52 -20 -13 11 -11 15 9 31 l23 18 -30 0 c-22 0 -37 9 -58 35
l-28 35 23 0 c13 0 46 18 73 40 28 21 70 54 95 71 89 63 110 100 50 91z m-363
-257 c101 -50 138 -132 130 -288 -16 -312 -264 -634 -556 -721 -71 -21 -219
-21 -268 -1 -60 25 -102 63 -130 118 -24 46 -27 63 -27 152 0 116 22 202 86
330 53 107 92 158 194 254 66 63 106 91 177 126 51 24 117 49 147 54 84 15
186 5 247 -24z"/>
<path d="M6335 3723 c-11 -2 -39 -11 -62 -20 -37 -13 -40 -17 -30 -34 9 -14 9
-21 0 -30 -8 -8 -8 -22 3 -52 8 -22 11 -43 7 -46 -5 -3 -9 -24 -9 -46 -1 -22
-3 -61 -5 -87 -3 -40 0 -51 24 -75 15 -16 27 -37 27 -46 0 -29 45 -31 90 -4
24 14 37 28 31 31 -8 5 -6 16 5 37 13 26 20 30 41 25 22 -6 24 -4 18 16 -6 22
-6 22 9 4 21 -27 29 -16 34 52 l5 57 -22 -19 -21 -19 11 34 c7 19 16 39 20 44
14 19 22 92 11 99 -15 9 -41 -31 -48 -74 -7 -35 -30 -90 -39 -90 -2 0 -11 14
-20 30 -12 24 -22 30 -46 30 -31 0 -31 0 -25 43 7 45 1 77 -15 77 -5 0 -9 -17
-9 -39 0 -21 -6 -44 -14 -50 -26 -22 -28 7 -5 70 19 51 26 61 51 66 15 3 28 9
28 14 0 9 -11 10 -45 2z"/>
<path d="M4890 3001 c0 -26 206 -180 304 -226 81 -39 100 -55 66 -55 -31 0
-20 -20 22 -42 43 -23 130 -34 184 -24 57 11 23 26 -61 26 -86 0 -110 12 -69
33 l28 15 -38 16 c-47 20 -73 46 -109 107 -34 60 -74 93 -137 114 -40 13 -54
14 -65 5 -12 -10 -20 -9 -37 2 -31 20 -88 39 -88 29z"/>
<path d="M4563 2949 l-32 -9 24 -37 c31 -45 31 -53 -1 -53 -36 0 -22 -15 34
-36 26 -10 75 -43 108 -73 34 -31 92 -73 129 -93 70 -39 75 -41 115 -39 22 1
20 6 -35 61 -33 33 -68 60 -80 60 -35 1 -152 64 -180 98 -52 62 -12 55 100
-19 42 -27 79 -49 84 -49 5 0 14 -6 20 -14 14 -17 93 -57 99 -51 9 9 -20 71
-44 96 -44 46 -9 42 67 -6 39 -26 73 -44 75 -42 10 10 -64 92 -110 124 -58 40
-87 44 -78 11 5 -21 2 -20 -31 9 -38 34 -91 53 -144 53 -17 0 -35 5 -38 10 -7
12 -38 12 -82 -1z"/>
<path d="M5230 2912 c0 -24 76 -112 97 -112 12 0 13 3 4 14 -6 7 -8 21 -5 31
8 19 15 18 144 -18 107 -29 120 -37 166 -92 39 -48 60 -58 51 -25 -7 27 0 26
99 -20 48 -22 95 -40 104 -40 19 0 37 33 21 38 -5 2 -7 10 -4 18 3 8 1 14 -5
14 -5 0 -32 18 -58 40 -27 22 -52 40 -57 40 -5 0 -29 14 -54 31 -29 20 -63 34
-92 37 -25 3 -70 16 -100 29 -45 19 -77 24 -183 29 -121 5 -128 4 -128 -14z"/>
<path d="M4995 2692 c8 -26 26 -57 40 -69 l26 -23 -28 0 c-27 -1 -27 -1 -9
-15 23 -17 89 -20 117 -4 15 7 24 7 35 -1 17 -15 44 -6 44 15 0 10 -9 15 -26
15 -15 0 -58 17 -96 38 l-70 37 52 8 c43 7 50 11 39 22 -8 7 -42 15 -76 19
l-62 6 14 -48z"/>
<path d="M7383 4923 c-42 -8 -68 -51 -127 -210 -32 -87 -69 -185 -81 -218 -13
-33 -188 -505 -390 -1049 -297 -802 -366 -995 -361 -1021 8 -39 41 -72 87 -85
44 -13 624 -13 668 0 19 5 44 19 56 30 15 14 82 181 196 489 l173 468 285
-490 c181 -310 296 -498 314 -511 23 -17 46 -21 135 -24 120 -4 178 7 210 40
11 13 64 140 117 283 610 1644 795 2148 795 2169 0 39 -21 76 -54 94 -27 15
-74 17 -336 20 -168 2 -324 0 -348 -3 -82 -12 -84 -16 -268 -515 -92 -250
-170 -458 -173 -462 -4 -4 -130 205 -281 463 -151 259 -287 483 -302 499 -15
15 -41 30 -59 34 -34 6 -220 6 -256 -1z m82 -119 c33 -22 32 -31 -4 -26 -16 2
-32 -1 -35 -7 -5 -7 3 -11 21 -11 17 0 35 -9 48 -26 l20 -25 59 30 c32 17 63
31 70 31 10 0 106 -158 106 -174 0 -3 -31 -6 -70 -6 -64 0 -86 -9 -60 -25 13
-8 13 -25 0 -25 -34 0 -103 46 -125 83 -23 39 -23 42 -7 61 9 10 13 17 7 14
-5 -2 -30 -14 -55 -25 -25 -12 -57 -25 -72 -28 l-27 -7 28 74 c15 40 31 81 34
91 8 21 30 22 62 1z m1890 -21 c-3 -10 -33 -91 -66 -179 l-60 -162 -47 -12
c-26 -6 -72 -27 -102 -46 -30 -19 -100 -48 -155 -65 -55 -16 -147 -45 -205
-64 -58 -18 -106 -32 -108 -30 -10 10 13 24 58 36 55 14 66 29 21 29 -27 0
-145 -54 -178 -81 -19 -17 -17 -4 24 110 31 83 43 105 63 113 41 16 52 43 20
51 -42 11 -9 34 68 48 74 13 77 15 80 43 l4 29 -48 -7 c-26 -3 -58 -13 -70
-21 -20 -13 -22 -13 -17 6 6 23 14 27 92 46 l56 13 -62 -4 c-35 -2 -63 -1 -63
2 0 4 12 42 27 85 l28 77 323 0 c305 0 324 -1 317 -17z m-1495 -359 c34 -58
60 -107 58 -108 -1 -2 -47 -26 -101 -54 -82 -43 -103 -50 -134 -45 -33 6 -39
3 -73 -37 l-37 -44 -75 33 c-68 29 -81 32 -142 26 -84 -7 -107 -20 -99 -55 10
-43 125 -210 145 -210 10 0 18 -4 18 -10 0 -17 128 -82 149 -75 13 4 26 -3 42
-24 27 -33 97 -71 131 -71 13 0 36 7 52 15 32 17 45 13 27 -9 -16 -20 1 -25
66 -18 28 2 65 0 82 -6 24 -9 34 -8 45 4 20 19 26 18 26 -6 0 -11 5 -20 10
-20 6 0 10 7 10 15 0 8 7 15 16 15 8 0 12 5 9 10 -4 6 -1 17 5 25 6 8 9 19 5
25 -3 5 -2 10 4 10 5 0 15 -15 21 -34 11 -35 36 -63 46 -53 3 3 -6 28 -20 56
-21 41 -23 51 -11 51 9 0 15 -9 15 -22 1 -13 12 -36 26 -53 23 -27 26 -28 21
-7 -7 29 9 29 17 0 5 -22 6 -22 19 -4 13 18 16 17 40 -24 l26 -44 10 27 c9 24
14 26 30 17 11 -5 30 -10 43 -10 22 1 22 2 -9 30 -18 16 -33 32 -33 34 0 3 44
7 98 8 l97 3 -65 31 c-36 18 -73 34 -83 38 -26 8 -11 26 22 26 39 0 69 23 53
42 -17 21 -7 27 41 22 32 -3 37 -2 22 5 -11 5 -36 10 -55 10 -19 1 -42 6 -50
12 -18 12 185 2 241 -12 36 -9 69 -4 69 10 0 4 -19 12 -42 19 -47 13 -97 47
-86 57 4 4 37 -7 74 -24 37 -17 69 -29 72 -26 3 2 -3 7 -12 11 -32 12 -15 19
51 19 61 0 68 2 71 20 4 30 151 117 202 120 48 3 50 -5 8 -30 -18 -10 -51 -35
-73 -55 -22 -20 -60 -48 -85 -62 -62 -36 -97 -65 -88 -74 4 -4 19 5 33 20 61
66 64 -13 4 -86 -55 -64 -180 -180 -248 -228 -31 -22 -67 -55 -80 -73 -27 -35
-134 -92 -191 -102 -19 -4 -58 -21 -85 -39 -28 -19 -61 -37 -74 -41 -30 -9
-95 -68 -120 -109 -11 -17 -25 -54 -31 -81 -6 -28 -31 -82 -56 -121 -24 -40
-44 -78 -44 -85 0 -25 -25 12 -129 193 -74 128 -101 183 -96 198 4 14 2 18 -7
15 -13 -5 -32 18 -48 59 -8 22 -7 22 43 18 36 -2 58 1 72 12 20 15 20 15 0 36
-12 11 -44 29 -72 39 -28 10 -71 32 -95 49 -25 17 -58 34 -73 38 l-28 7 32
-47 c18 -25 30 -46 28 -46 -20 0 -78 35 -106 64 -19 20 -41 35 -49 33 -8 -1
-17 4 -20 12 -5 14 26 12 86 -5 17 -5 22 -3 20 7 -2 10 9 15 35 17 33 3 43 -2
72 -33 19 -19 62 -48 97 -63 140 -61 155 -73 149 -121 -2 -7 4 -11 11 -9 7 3
15 15 16 27 5 32 -39 75 -91 91 -66 20 -118 49 -169 96 -53 50 -85 61 -129 45
-22 -8 -52 -8 -105 0 -40 6 -80 9 -88 6 -8 -3 -27 -27 -43 -54 -23 -40 -28
-60 -29 -123 -2 -96 -2 -98 -14 -80 -11 18 -16 13 -24 -27 l-7 -32 48 16 c48
15 48 15 48 59 0 29 -4 44 -12 44 -15 0 -17 91 -4 125 7 17 8 17 15 -8 3 -15
11 -27 16 -27 5 0 7 -7 4 -15 -4 -8 -2 -21 4 -28 13 -16 21 -77 10 -77 -11 0
-10 -21 1 -39 7 -11 13 -12 23 -3 8 6 24 9 37 5 18 -4 21 -11 16 -32 -4 -19 0
-29 14 -38 13 -8 22 -9 26 -3 11 18 23 11 18 -10 -4 -16 0 -20 18 -20 58 -1
58 -6 -21 -217 -41 -109 -80 -209 -87 -223 -7 -14 -13 -32 -14 -40 0 -11 -2
-12 -6 -2 -4 10 -11 8 -28 -8 -20 -19 -41 -23 -151 -30 -130 -9 -161 -7 -108
6 61 14 76 50 17 39 -32 -6 -35 -5 -25 8 10 12 9 16 -8 20 -13 3 -31 -4 -51
-20 -34 -29 -189 -82 -169 -57 11 12 6 14 -31 14 -41 1 -43 2 -25 15 29 22 13
29 -23 10 -17 -8 -31 -14 -31 -13 1 33 215 604 255 681 8 16 15 37 15 48 0 11
13 48 29 82 15 34 31 74 35 89 3 15 11 40 17 55 7 15 13 35 14 43 5 35 186
505 198 512 6 5 42 6 78 3 52 -5 68 -3 79 10 7 8 22 15 34 15 11 1 32 7 46 15
14 8 37 14 51 15 15 0 30 7 33 16 5 14 16 16 61 11 54 -5 119 6 130 23 3 4
-11 4 -31 -2 -20 -5 -38 -7 -41 -4 -7 6 68 45 89 46 10 0 38 -37 78 -106z m96
-171 c15 -27 39 -66 54 -88 15 -22 43 -69 63 -105 19 -36 47 -87 62 -113 27
-47 27 -48 9 -68 -35 -38 -52 -42 -89 -19 -20 13 -35 30 -35 41 0 23 -13 24
-34 4 -9 -10 -32 -15 -63 -14 l-48 1 40 9 c65 16 155 51 155 61 0 6 -8 7 -17
3 -39 -16 -109 -25 -154 -19 -35 5 -57 1 -94 -15 -27 -12 -84 -30 -126 -41
-85 -22 -118 -17 -141 20 -7 11 -24 20 -38 20 -20 0 -22 2 -10 10 23 15 91 12
110 -5 15 -14 18 -13 27 8 16 34 4 45 -50 49 l-47 3 35 28 c30 24 37 26 55 15
18 -11 23 -10 31 5 6 9 24 24 40 33 24 12 33 13 45 3 11 -9 18 -9 26 -1 16 16
3 26 -36 26 -22 0 -47 -10 -71 -28 -36 -27 -37 -28 -58 -9 -45 37 -46 47 -9
62 15 6 38 18 52 25 50 28 78 38 88 32 5 -3 16 1 23 10 13 16 158 104 171 104
4 0 19 -21 34 -47z m688 -67 c89 -15 120 -26 75 -26 -23 -1 -22 -2 6 -14 26
-11 18 -12 -72 -8 -56 2 -114 1 -130 -3 -27 -6 -27 -7 -9 -21 11 -8 28 -14 38
-14 10 0 18 -4 18 -10 0 -5 -25 -10 -56 -10 l-56 0 7 28 c9 39 33 72 58 82 29
12 20 12 121 -4z m446 -96 c0 -30 -234 -637 -274 -710 -44 -83 -56 -120 -37
-120 12 0 -15 -67 -40 -99 -11 -14 -17 -32 -13 -43 6 -21 -135 -411 -169 -464
-3 -6 -42 -13 -86 -16 -61 -4 -92 -11 -131 -31 -55 -29 -150 -47 -150 -29 0
18 46 48 109 71 34 12 61 25 61 29 0 4 -14 23 -29 42 l-29 35 -46 -23 c-50
-24 -72 -27 -78 -12 -1 5 -13 7 -25 4 -18 -5 -22 -11 -17 -30 10 -40 -23 -29
-52 18 l-26 41 23 18 c22 17 47 24 76 20 6 -1 14 3 18 9 9 14 -51 12 -95 -3
l-35 -13 -52 89 -53 88 26 51 c14 28 36 61 48 73 13 12 33 50 46 84 12 33 26
61 30 61 4 0 11 -16 14 -35 8 -41 12 -42 35 -13 18 22 18 21 42 -48 12 -38 25
-61 27 -51 5 23 19 22 27 -4 7 -20 8 -20 27 -3 15 14 18 26 14 50 -6 27 -2 35
29 58 19 15 42 41 51 59 9 18 30 43 46 57 27 23 62 99 51 110 -2 3 -13 -6 -23
-20 -52 -71 -49 -70 -50 -14 0 68 24 99 93 119 38 11 63 12 92 5 33 -8 42 -6
53 7 6 9 12 20 12 25 0 4 6 8 14 8 7 0 25 9 40 21 19 15 26 30 26 56 0 27 3
34 15 29 8 -3 14 -2 14 2 -4 28 8 50 60 106 33 35 72 88 87 118 42 83 82 139
133 185 45 42 71 53 71 33z m-1811 -1316 c2 -2 -23 -77 -56 -166 l-60 -163
-317 -3 -317 -2 6 22 c4 13 13 37 21 55 l13 32 48 -14 c26 -7 67 -16 90 -20
75 -12 306 27 338 56 13 12 -122 11 -145 -1 -26 -14 -269 -15 -300 -2 -20 9
-8 10 55 5 70 -5 86 -3 124 16 36 19 58 22 139 21 53 -1 106 -1 118 -1 19 1
184 124 184 138 0 3 -15 2 -32 -1 -124 -26 -208 -39 -237 -37 -44 2 -97 -16
-113 -37 -9 -12 -28 -18 -61 -18 -27 -1 -54 -7 -65 -16 -9 -9 -41 -18 -71 -22
-49 -6 -53 -5 -46 11 4 10 12 30 17 46 13 34 52 46 77 23 13 -12 20 -14 23 -6
4 13 70 23 249 40 58 6 141 21 185 34 68 21 119 25 133 10z m1160 -244 c35 -5
65 -10 67 -12 2 -2 -4 -27 -13 -56 l-17 -52 -111 0 -111 0 -31 60 c-17 32 -28
62 -25 65 9 8 171 5 241 -5z"/>
<path d="M9011 4719 c-78 -14 -160 -39 -167 -51 -5 -7 -2 -9 7 -6 8 3 32 3 54
-1 l40 -7 -35 -11 c-19 -7 -55 -17 -79 -23 -29 -8 -40 -15 -33 -22 6 -6 41 -3
106 11 52 12 107 21 121 21 15 0 47 9 73 19 26 11 75 25 110 31 34 7 62 16 62
20 0 20 -180 33 -259 19z"/>
<path d="M8751 3443 c-19 -9 -49 -40 -68 -70 -20 -29 -39 -53 -43 -53 -4 0
-11 12 -14 26 l-7 26 -36 -41 c-19 -23 -37 -40 -39 -38 -2 2 7 34 21 70 18 50
21 67 11 67 -22 0 -47 -36 -61 -90 -14 -52 -29 -79 -40 -68 -3 3 2 24 10 48
18 50 18 50 6 50 -6 0 -25 -28 -43 -62 -18 -35 -57 -86 -86 -115 -29 -28 -48
-53 -42 -55 13 -4 -43 -112 -77 -149 -24 -26 -24 -27 -7 -63 10 -20 20 -36 24
-36 6 0 58 132 73 185 5 17 19 44 32 60 23 32 145 122 145 108 0 -4 -35 -46
-76 -93 -42 -47 -83 -98 -92 -115 -25 -48 -52 -149 -42 -155 5 -3 5 -11 0 -20
-15 -24 -11 -31 10 -20 11 6 27 25 36 43 9 18 30 47 45 65 16 18 29 41 29 50
0 10 16 47 35 82 19 36 35 57 35 47 0 -23 -24 -69 -44 -86 -9 -8 -16 -27 -16
-43 l0 -29 30 22 c42 31 50 15 12 -24 -28 -29 -59 -87 -46 -87 3 0 25 14 49
30 24 17 64 39 88 49 49 21 64 38 49 53 -12 12 -92 -26 -92 -44 0 -6 -2 -9 -5
-6 -11 11 38 108 54 108 10 0 30 14 46 30 46 49 52 39 28 -45 -5 -19 -4 -18
20 3 13 13 25 33 25 45 0 12 8 43 18 69 10 26 15 50 12 54 -4 3 -34 -13 -68
-36 -33 -24 -63 -40 -66 -37 -12 11 31 64 89 112 44 36 66 63 90 114 17 36 33
69 35 74 6 11 -10 8 -47 -10z"/>
<path d="M1243 4900 l-493 -5 -24 -25 c-17 -17 -61 -121 -133 -315 -121 -327
-128 -364 -80 -412 l27 -28 206 -3 205 -3 -7 -22 c-4 -12 -135 -366 -291 -787
-156 -421 -290 -786 -297 -811 -16 -57 -3 -103 37 -133 27 -20 42 -21 330 -24
357 -4 397 -1 433 36 20 20 107 243 344 882 l317 855 244 5 c253 5 271 8 297
51 6 9 59 147 119 306 117 315 125 353 84 397 -13 14 -38 28 -55 31 -48 8
-716 11 -1263 5z m41 -152 c-30 -28 -54 -55 -54 -59 0 -5 34 -9 75 -9 78 0
103 15 38 23 -56 7 192 -2 264 -9 57 -6 63 -5 84 20 19 22 31 26 78 26 48 0
58 4 76 26 19 24 28 27 115 31 l95 4 -57 -30 c-31 -17 -59 -35 -63 -40 -9 -16
75 -35 155 -35 56 0 88 6 127 23 29 13 57 21 63 19 20 -6 -76 -65 -128 -78
-29 -6 -67 -22 -86 -35 -18 -12 -39 -25 -47 -29 -8 -3 12 -4 43 -3 45 3 55 1
47 -9 -5 -7 -42 -13 -88 -15 -66 -3 -84 -8 -117 -32 -104 -74 -109 -95 -12
-53 34 15 101 36 148 46 47 10 112 26 145 35 33 9 97 21 143 28 l83 13 -6 -25
c-19 -77 -132 -361 -144 -361 -7 0 -23 12 -35 27 l-21 27 -5 -29 c-5 -26 -10
-30 -40 -31 -19 0 -120 -1 -225 -2 l-190 -2 -109 -298 c-60 -163 -128 -344
-151 -402 -23 -58 -45 -113 -48 -123 -6 -16 -18 -8 -85 53 -57 54 -78 68 -80
56 -5 -24 39 -94 91 -144 41 -40 44 -46 34 -71 -8 -22 -15 -27 -36 -24 -26 3
-26 3 -3 -9 15 -7 21 -17 17 -27 -4 -9 -8 -23 -10 -31 -6 -29 -177 -485 -196
-522 -11 -22 -27 -38 -37 -38 -16 -1 -16 -2 1 -15 33 -24 -7 -34 -88 -22 -63
10 -66 12 -35 17 l35 6 -44 8 c-24 5 -58 14 -76 22 -39 16 -121 0 -225 -46
-64 -28 -200 -63 -209 -54 -5 5 140 402 155 422 8 11 40 16 137 20 70 3 127 8
127 12 0 10 -30 21 -40 15 -13 -8 -181 12 -191 22 -11 11 3 57 25 79 8 7 16
18 18 23 2 5 49 3 108 -5 58 -7 111 -13 118 -14 23 0 12 -18 -24 -35 -25 -12
-50 -15 -83 -11 -36 4 -39 3 -16 -3 17 -5 73 -11 125 -13 92 -5 94 -4 58 10
-51 20 -48 32 8 32 41 0 45 2 39 20 -5 16 -2 20 15 20 20 0 19 2 -10 26 -29
25 -32 25 -49 10 -17 -16 -20 -15 -49 9 -35 29 -42 31 -42 9 0 -9 17 -22 40
-31 22 -9 40 -20 40 -25 0 -14 -44 -9 -67 7 -16 11 -42 15 -93 13 -65 -3 -73
-1 -89 21 -18 23 -18 26 3 83 l21 58 18 -25 c11 -14 29 -25 41 -25 13 0 35 -9
50 -21 l26 -20 0 25 c0 14 4 26 8 26 8 0 87 -27 137 -46 19 -7 19 -7 3 13 -10
11 -18 22 -18 25 0 9 73 -10 121 -31 24 -11 57 -21 74 -21 l30 0 -27 25 c-20
19 -38 25 -71 25 -51 0 -67 13 -67 55 0 30 -15 55 -33 55 -4 0 -5 -10 -2 -22
5 -15 4 -20 -6 -16 -8 3 -38 13 -67 22 -44 15 -52 21 -47 37 4 12 -3 37 -19
64 -13 25 -21 45 -17 45 5 0 28 -11 52 -24 45 -25 186 -50 195 -35 6 10 -5 57
-19 84 -17 33 -18 65 -1 58 12 -5 15 3 12 43 l-3 48 -60 21 c-55 19 -100 40
-133 63 -9 6 2 46 46 165 32 86 61 160 65 163 3 4 29 1 56 -6 40 -9 62 -9 101
0 54 13 57 25 10 35 -29 6 -47 21 -37 31 2 2 17 -2 33 -11 36 -19 58 -19 73
-1 9 11 6 18 -15 35 -33 26 -60 26 -126 1 -68 -26 -69 -26 -61 10 l6 30 -87 0
c-101 0 -115 16 -41 51 51 24 74 53 50 63 -8 3 -22 3 -30 0 -21 -8 -19 13 3
25 21 13 7 14 -16 2 -9 -4 -33 -11 -52 -15 -32 -6 -33 -5 -15 8 24 18 32 17
-137 25 -98 4 -135 9 -130 17 5 8 38 9 120 2 62 -6 124 -7 138 -4 l27 7 -21
20 c-17 15 -36 19 -88 19 -75 0 -144 17 -144 35 0 8 31 14 98 18 104 5 130 2
63 -9 -63 -10 -50 -27 16 -22 49 4 60 9 78 33 11 16 35 43 53 61 17 18 32 42
32 54 0 26 -12 26 -28 0 -23 -37 -33 -11 -12 30 11 22 20 42 20 45 0 8 -53 -6
-68 -18 -12 -9 -167 -5 -177 5 -3 3 5 33 17 66 l22 62 272 0 272 -1 -54 -51z
m-352 -2141 c-3 -27 -3 -27 60 -27 83 0 139 -15 131 -36 -5 -13 -18 -15 -77
-9 -39 3 -84 10 -101 15 -16 5 -50 11 -75 15 l-45 6 24 -21 c13 -11 33 -20 45
-21 11 0 16 -3 9 -5 -6 -3 -51 7 -99 22 l-88 26 60 25 c119 49 161 52 156 10z
m-201 -88 c50 -26 87 -35 212 -53 121 -17 142 -22 102 -24 -27 -2 -75 2 -105
8 -40 9 -55 9 -58 1 -6 -17 -208 -15 -215 3 -8 21 -85 56 -124 56 -47 0 -37 9
29 25 79 19 93 18 159 -16z"/>
<path d="M1656 4596 c-17 -18 -46 -41 -63 -50 -18 -9 -40 -28 -49 -42 -9 -13
-57 -52 -105 -86 -49 -34 -87 -63 -85 -65 2 -3 22 1 44 6 22 6 47 9 55 5 8 -3
26 0 40 8 27 15 187 183 187 196 0 5 17 21 37 35 l38 27 -34 0 c-25 0 -41 -8
-65 -34z"/>
<path d="M2723 4903 c-12 -2 -32 -14 -43 -26 -27 -28 -901 -2389 -902 -2435 0
-37 22 -76 53 -93 14 -7 132 -13 338 -16 338 -6 387 -1 424 41 11 12 70 158
131 323 61 166 113 304 116 307 3 2 47 -133 98 -302 62 -203 100 -315 114
-330 12 -12 38 -26 57 -32 47 -13 675 -13 722 0 19 6 45 21 58 34 45 47 41 63
-117 506 l-149 415 76 40 c156 82 307 215 400 354 103 151 176 358 188 526 15
232 -89 448 -272 564 -80 51 -144 77 -255 103 -78 19 -122 21 -550 23 -256 2
-475 1 -487 -2z m97 -143 c7 0 25 -14 42 -32 16 -18 40 -37 51 -43 15 -7 23
-22 25 -43 3 -27 11 -36 50 -56 73 -36 142 -40 232 -12 41 13 123 34 183 47
59 13 107 26 107 29 0 11 -286 -26 -352 -46 -10 -3 -18 -1 -18 5 0 5 13 12 30
16 16 4 33 11 36 17 4 6 -1 8 -15 3 -12 -4 -61 -3 -109 1 l-87 7 80 13 c44 7
159 23 255 34 96 11 189 24 205 29 28 9 27 9 -16 10 -54 1 -136 24 -164 46
-18 14 -5 15 145 10 186 -7 317 -23 285 -36 -15 -6 -9 -8 23 -8 56 -1 150 -49
215 -109 52 -49 132 -161 121 -171 -3 -3 -76 -8 -162 -11 -147 -5 -154 -6
-112 -18 25 -6 61 -17 80 -24 19 -6 76 -10 126 -9 l91 2 7 -47 c3 -26 6 -58 6
-71 0 -20 -3 -22 -19 -13 -11 5 -30 10 -43 10 -13 0 -48 9 -78 21 -38 14 -77
20 -129 20 -41 0 -86 2 -98 6 -21 5 -22 6 -7 18 15 10 13 13 -18 18 -41 6
-115 3 -177 -8 -51 -9 -51 9 -1 20 43 9 37 19 -17 32 -48 11 -59 8 -97 -22
-20 -15 -20 -15 0 -30 18 -14 17 -14 -14 -15 -33 0 -102 -24 -102 -35 0 -3 29
-3 65 1 36 4 65 4 65 1 0 -10 -51 -34 -128 -62 -48 -17 -90 -25 -137 -25 -58
0 -68 -3 -72 -20 -3 -11 -9 -20 -14 -20 -4 0 -7 -8 -7 -17 1 -10 -8 -39 -20
-65 -12 -26 -22 -51 -22 -56 0 -5 -12 -9 -27 -10 -16 0 -68 -5 -118 -12 -49
-6 -109 -10 -133 -8 -74 6 -40 -16 69 -44 62 -16 118 -25 138 -22 33 5 33 5
26 -23 -3 -15 -8 -30 -10 -31 -5 -5 -176 49 -233 74 -37 16 -109 19 -114 5 -5
-15 -134 -19 -131 -4 1 6 -20 31 -47 56 l-49 45 87 234 87 233 56 -3 57 -4 16
48 c9 26 16 51 16 56 0 4 -25 5 -55 2 l-54 -7 16 42 c14 35 20 41 45 41 33 0
36 10 9 34 -11 10 -17 24 -14 32 4 11 10 10 33 -6 15 -11 33 -20 40 -20z
m1095 -449 c3 -5 -7 -12 -22 -14 -16 -3 9 -3 55 0 67 4 82 3 82 -10 0 -10 -24
-17 -92 -27 -51 -7 -100 -17 -108 -21 -24 -13 34 -11 138 6 60 10 117 13 158
9 63 -7 65 -8 60 -33 -3 -14 -8 -48 -11 -76 -14 -100 -90 -305 -115 -305 -5 0
-20 4 -34 10 -33 12 -33 5 2 -26 l27 -26 -32 6 c-19 3 -33 1 -33 -4 0 -6 -26
-11 -57 -12 l-58 -1 67 -6 c36 -3 70 -9 74 -13 11 -11 -42 -83 -119 -161 l-68
-69 -59 80 c-56 75 -80 102 -80 87 0 -4 9 -18 20 -32 11 -14 20 -38 20 -53 0
-18 12 -37 36 -58 31 -28 34 -35 23 -48 -12 -15 -15 -14 -30 5 -10 12 -22 21
-28 21 -6 0 -16 9 -23 21 -7 11 -39 36 -70 55 -74 45 -184 164 -151 164 3 0
15 -7 25 -17 10 -9 21 -13 26 -9 4 4 -10 22 -30 39 -60 51 -63 74 -23 152 19
37 35 75 35 86 0 10 16 37 36 59 39 43 38 48 -5 25 -27 -13 -29 -13 -34 6 -4
14 2 23 22 34 48 24 54 40 23 55 -60 31 -58 34 39 57 198 49 302 63 314 44z
m-513 -208 c48 -43 -20 -169 -112 -206 -38 -16 -130 -32 -130 -23 0 3 16 50
36 103 20 54 41 108 45 121 8 20 15 22 75 22 49 0 73 -5 86 -17z m-642 -263
c0 -5 -12 -10 -27 -11 -16 0 -22 -3 -14 -6 7 -3 38 0 67 6 30 7 64 9 76 5 20
-6 21 -7 4 -20 -16 -11 -11 -14 42 -24 73 -15 116 -39 142 -82 l19 -32 13 47
12 47 74 0 74 0 -7 -47 c-9 -61 -12 -66 -41 -60 -18 3 -30 -5 -55 -36 l-32
-40 44 7 c56 10 158 7 179 -4 18 -9 68 -52 109 -90 14 -14 38 -33 54 -43 62
-40 15 -50 -57 -12 -25 13 -46 21 -46 17 0 -16 59 -71 82 -77 19 -5 25 -13 25
-36 0 -33 -1 -33 -27 -19 -26 14 -45 -19 -26 -45 8 -11 15 -14 19 -8 4 6 17 8
31 6 21 -4 30 -22 70 -138 25 -73 46 -138 46 -144 0 -27 -77 3 -104 41 -12 17
-18 19 -30 9 -13 -11 -21 -9 -46 9 -17 12 -33 20 -35 18 -2 -2 5 -23 16 -47
10 -24 19 -65 19 -92 0 -62 40 -173 76 -210 26 -27 51 -38 131 -54 29 -6 32
-4 35 22 2 20 9 28 22 28 18 0 27 -18 60 -122 7 -23 6 -23 -88 -23 -52 0 -97
4 -101 9 -3 5 5 17 17 26 16 12 19 19 10 22 -36 14 -114 88 -151 145 -58 87
-143 198 -152 198 -4 0 -21 24 -37 53 -33 59 -56 77 -131 106 -58 22 -67 13
-17 -17 33 -20 66 -62 48 -62 -4 0 -21 13 -36 29 -34 35 -85 59 -94 44 -4 -5
-19 -13 -34 -16 -21 -6 -31 -1 -57 28 -16 19 -33 50 -37 70 -3 19 -10 38 -15
41 -15 9 -10 44 7 44 24 0 5 20 -33 37 -40 16 -58 9 -29 -12 18 -14 18 -15 0
-59 -15 -37 -21 -43 -36 -35 -9 5 -57 12 -105 14 -79 5 -86 4 -69 -9 18 -14
18 -15 -5 -20 -70 -14 -125 -13 -176 5 -53 18 -83 17 -83 -3 0 -7 -23 -8 -65
-3 -69 7 -105 1 -105 -19 0 -6 20 -31 44 -55 37 -36 59 -48 136 -70 73 -22 88
-30 77 -39 -8 -7 -32 -12 -53 -11 -96 2 -112 1 -164 -9 -46 -9 -28 -10 105 -7
175 4 240 -5 248 -36 4 -16 15 -19 66 -19 62 0 80 -12 39 -25 -20 -6 -20 -8
-5 -12 21 -5 21 -5 3 -48 -13 -30 -20 -35 -48 -36 -48 -1 -71 -5 -313 -52
-207 -41 -217 -45 -172 -52 45 -7 47 -9 32 -25 -15 -16 -12 -17 61 -4 43 8
136 18 208 24 72 6 143 15 158 20 25 8 26 7 19 -13 -5 -12 -19 -25 -32 -28
-15 -4 -18 -7 -7 -8 24 -1 31 -17 14 -34 -8 -8 -13 -17 -10 -19 4 -4 -22 -80
-58 -170 l-10 -28 -319 0 c-176 0 -319 2 -319 4 0 3 20 55 45 117 25 62 45
118 45 123 0 13 104 297 126 344 12 25 20 31 37 27 41 -9 142 -23 145 -20 5 5
-54 63 -97 96 l-34 26 48 137 c67 197 173 478 183 488 20 20 155 51 252 58 58
4 111 8 118 8 6 1 12 -2 12 -8z m548 -1024 c15 -8 43 -31 62 -50 19 -20 63
-55 97 -77 35 -23 63 -47 63 -54 0 -26 -32 -76 -46 -71 -8 3 -26 1 -40 -4 -19
-8 -37 -5 -75 12 -47 20 -52 20 -83 5 -18 -8 -70 -19 -115 -22 -78 -7 -81 -7
-81 14 0 11 5 21 10 21 6 0 10 5 10 10 0 6 -8 10 -18 10 -13 0 -22 15 -34 62
-10 34 -16 64 -14 65 1 2 27 -1 56 -7 76 -14 173 -13 195 4 18 13 18 14 -3 48
-32 52 -30 58 16 34z m359 -298 l122 -12 11 -29 c5 -17 10 -31 10 -32 0 -1
-85 -2 -188 -4 l-188 -2 -33 41 c-22 28 -28 42 -19 45 23 8 92 13 128 9 19 -2
90 -9 157 -16z"/>
<path d="M9744 4900 c-17 -6 -39 -19 -49 -30 -15 -17 -164 -402 -319 -830 -30
-80 -172 -464 -317 -855 -144 -390 -263 -725 -263 -742 0 -18 9 -45 20 -60 38
-50 69 -54 419 -51 346 3 363 6 390 57 29 58 885 2382 885 2405 0 39 -21 76
-54 94 -27 15 -73 17 -356 19 -179 1 -339 -2 -356 -7z m235 -109 c12 -8 9 -11
-12 -16 -36 -10 -35 -28 2 -20 20 4 39 -1 65 -16 20 -12 69 -34 109 -50 40
-15 71 -33 70 -39 -4 -14 30 -12 51 3 17 13 18 14 2 20 -26 10 -9 27 28 27 21
0 40 8 52 21 l19 22 -30 -7 c-46 -10 -85 -27 -85 -37 0 -19 -116 -3 -142 20
-4 4 6 23 23 44 l30 37 124 0 123 0 -29 -76 c-16 -41 -29 -82 -29 -91 0 -14
-12 -15 -95 -9 -52 3 -117 9 -143 12 -43 6 -45 5 -27 -8 39 -29 85 -37 165
-31 51 4 80 2 80 -4 0 -6 -41 -13 -92 -17 -51 -4 -94 -9 -97 -12 -11 -10 13
-16 88 -21 45 -3 81 -8 81 -11 0 -23 -46 -122 -56 -122 -7 0 -48 12 -91 27
-56 19 -100 26 -155 27 -42 1 -73 5 -69 9 16 16 153 29 178 18 13 -6 36 -11
51 -10 l27 1 -30 13 c-53 24 -154 27 -329 10 -92 -9 -171 -14 -174 -11 -2 3
18 68 46 143 47 130 52 138 78 142 l29 4 -25 7 c-15 5 13 8 75 9 55 0 107 -3
114 -8z m125 -357 c22 -8 20 -30 -5 -66 -12 -16 -19 -32 -16 -34 7 -7 45 13
80 42 17 15 42 24 62 24 28 0 32 -3 28 -20 -3 -11 -23 -26 -49 -36 -23 -9 -50
-24 -59 -34 -15 -17 -15 -19 5 -25 15 -5 31 0 51 14 l29 22 -25 -68 c-37 -97
-75 -134 -75 -73 0 20 8 35 25 46 40 26 29 36 -15 14 -22 -11 -47 -19 -54 -18
-14 3 -71 -70 -62 -79 2 -3 13 0 24 6 28 15 32 14 32 -7 0 -25 -30 -51 -76
-67 -44 -15 -75 -9 -81 17 -3 10 -9 18 -14 18 -5 0 -5 10 0 23 6 15 4 26 -5
35 -18 17 -27 15 -20 -4 4 -10 2 -14 -6 -11 -7 2 -33 -6 -58 -18 -25 -13 -89
-44 -143 -69 -103 -47 -169 -93 -189 -129 -6 -12 -19 -67 -28 -122 -20 -112
-37 -159 -74 -208 -26 -34 -69 -147 -56 -147 12 0 45 41 65 84 12 24 28 42 40
44 11 2 34 16 50 32 17 15 41 31 55 35 14 4 43 15 65 25 22 11 61 28 87 39 25
10 51 28 57 39 9 17 7 19 -17 20 -33 1 -156 62 -127 62 20 1 20 1 1 15 -18 14
-18 15 5 34 13 11 32 18 41 15 9 -3 21 2 26 12 6 11 17 15 31 11 23 -6 119 18
135 33 5 5 15 6 22 3 21 -8 17 15 -5 27 -27 14 -213 4 -256 -14 -19 -8 -35
-12 -35 -8 0 12 182 95 225 103 22 4 49 11 60 15 15 5 14 2 -5 -12 -14 -10
-29 -19 -35 -19 -25 -1 -75 -17 -75 -24 0 -10 103 -24 189 -26 48 -2 67 -6 77
-19 17 -23 52 -12 60 19 3 12 23 37 44 54 l39 31 -23 -62 c-13 -35 -81 -218
-151 -408 -115 -310 -133 -350 -173 -397 -31 -37 -52 -53 -69 -53 -14 0 -52
-16 -86 -36 -49 -29 -65 -34 -79 -25 -30 19 -49 13 -89 -29 -40 -41 -66 -52
-55 -24 15 39 18 64 7 64 -12 0 -45 -32 -71 -69 -13 -20 -33 -26 -91 -30 -9 0
-27 -10 -40 -20 -24 -20 -24 -20 36 -6 33 8 63 14 67 15 4 0 23 14 43 31 33
29 35 30 35 10 0 -37 30 -38 59 -3 24 29 31 32 82 32 43 0 76 9 149 40 51 23
94 39 95 38 2 -2 -49 -143 -112 -313 l-115 -311 -96 -26 c-54 -14 -118 -34
-144 -44 -26 -10 -51 -15 -55 -10 -4 4 11 24 34 44 27 25 45 50 52 76 6 22 8
42 6 44 -2 3 -29 -7 -59 -22 -37 -18 -62 -39 -78 -64 -42 -70 -74 -92 -132
-92 -50 0 -51 1 -30 18 12 9 53 60 91 112 89 122 91 125 68 116 -11 -4 -25 0
-37 10 -16 15 -21 16 -45 3 -15 -8 -42 -29 -60 -48 -48 -49 -41 -29 13 37 l47
57 -66 3 c-52 2 -65 6 -61 17 3 7 12 11 20 8 17 -6 74 15 74 28 0 5 -16 9 -35
9 -19 0 -35 3 -35 8 0 17 190 540 224 617 8 17 28 71 46 120 19 50 48 111 65
136 18 25 38 56 45 69 11 21 10 22 -8 18 -20 -6 -20 -3 8 71 90 243 96 256
113 256 22 0 89 53 82 65 -7 11 43 50 64 50 10 0 22 5 29 12 8 8 10 3 5 -25
-7 -45 7 -52 73 -42 38 5 49 12 66 41 11 19 28 34 37 34 10 0 28 11 40 24 19
21 27 23 54 15 18 -5 35 -9 39 -9 13 0 9 23 -7 44 -14 19 -18 18 -103 -27 -68
-36 -91 -44 -100 -35 -18 18 -15 28 8 28 10 0 24 9 30 20 16 29 -3 26 -62 -10
-44 -27 -51 -29 -69 -16 -20 13 -20 14 -2 18 11 3 4 8 -21 13 -28 6 -47 3 -73
-9 -36 -17 -50 -16 -39 3 4 6 23 13 42 17 20 4 48 17 62 31 17 16 33 22 47 19
12 -3 37 3 56 13 50 26 89 34 105 20 12 -9 22 -6 52 15 28 20 49 26 89 26 28
0 58 -3 67 -6z"/>
</g>
</svg>
